<svg xmlns="http://www.w3.org/2000/svg" xmlns:xlink="http://www.w3.org/1999/xlink" viewBox="0 0 107.78 44.78" fill="#fff" fill-rule="evenodd" stroke="#000" stroke-linecap="round" stroke-linejoin="round"><use xlink:href="#A" x="1.89" y="1.89"/><symbol id="A" overflow="visible"><g stroke="none" fill="#ea2845"><path d="M23.781 0c-.291 0-.567.064-.813.151.483.316.829.802.971 1.361l.038.196c.008.076.023.125.023.189.038.918-.238 1.032-.438 1.576a2.23 2.23 0 0 0 .147 2.052 1.24 1.24 0 0 0 .125.231c-.397-2.638 1.803-3.035 2.211-3.855.03-.756-.567-1.198-1.032-1.534-.369-.233-.796-.356-1.232-.355zm3.315.593c-.038.238-.011.178-.023.302l-.023.272-.076.249a2.33 2.33 0 0 1-.083.25l-.113.238c-.03.038-.053.083-.083.125l-.064.095-.151.208c-.064.064-.113.136-.189.189s-.125.125-.197.178c-.219.166-.469.291-.699.454-.075.053-.151.095-.208.151s-.136.106-.197.166l-.189.197c-.064.076-.113.136-.151.208l-.151.219-.113.238-.083.238-.076.264c-.011.038-.011.095-.023.136s-.011.083-.023.125l-.011.265c-.002.063.002.126.011.189 0 .083.011.166.03.265l.053.25.083.249c.023.053.053.106.076.151l-2.396-.93-1.209-.314-.658-.151-1.897-.28a17.57 17.57 0 0 0-1.92-.106l-1.361.053-1.909.231-.469.083-.937.208-.469.125-.453.197-.378.151-.378.166-.076.03-.325.166c-.076.03-.151.076-.208.106-.03.023-.076.038-.095.053l-.272.151-.249.151-.208.151-.227.166-.178.151-.219.178-.227.219-.208.197-.178.189c-.023.023-.053.038-.075.064-.053.064-.113.125-.178.189l-.28.302-.567.54a5.94 5.94 0 0 1-.582.457l-.627.397c-.213.117-.433.222-.658.314l-.68.249c-.438.095-.884.272-1.274.302-.083 0-.178.023-.265.03l-.265.064-.25.094c-.083.03-.166.076-.249.113s-.151.095-.227.151-.143.113-.208.178c-.076.055-.146.118-.208.189l-.106.212c-.053.083-.113.151-.151.238s-.106.151-.151.238l-.113.272-.095.272-.053.249c-.03.125-.03.249-.038.314S0 13.372 0 13.444a.57.57 0 0 0 .011.136l.038.197.076.189c.03.075.076.136.113.196l.136.189.178.166c.064.064.125.113.197.166.249.219.314.291.635.454.053.03.106.053.166.083l.095.314c.019.087.053.178.083.25l.083.189.151.28.151.219.178.197c.064.064.125.113.197.178l.208.151c.073.051.15.097.231.136s.151.083.238.113c.064.03.136.053.208.076l.178.053c-.03.567-.038 1.134.038 1.285.095.208.552-.427 1.013-1.157-.064.756-.106 1.565 0 1.814s.741-.552 1.285-1.451c3.406-.828 7.004-.132 9.857 1.906s4.676 5.216 4.997 8.707c-.136-1.126-1.523-1.75-2.154-1.595-.314.771-.843 1.761-1.701 2.381.074-.697.038-1.401-.106-2.086-.234.959-.675 1.856-1.293 2.627a2.91 2.91 0 0 1-2.502-1.126c-.038-.03-.053-.094-.083-.136l-.106-.261a1.09 1.09 0 0 1-.064-.219c-.011-.068-.011-.151-.011-.227v-.151c.011-.074.029-.148.053-.219l.076-.219c.038-.076.076-.151.125-.219.178-.499.178-.907-.151-1.145-.064-.038-.125-.076-.197-.106l-.136-.038-.083-.03-.219-.053c-.071-.02-.145-.03-.219-.03-.076-.013-.153-.02-.231-.023-.053 0-.106.011-.151.011-.083 0-.151.011-.227.03l-.219.038-.219.076-.208.095-.197.106c-2.43 1.587-.983 5.291.68 6.372-.627.113-1.262.249-1.436.386.427.291.896.522 1.387.756l1.689.499c.863.185 1.746.251 2.627.197 4.619-.325 8.406-3.836 9.094-8.466l.064.272.095.582c.023.106.03.197.038.28l.023.314.023.378v.166c0 .053.011.113.011.166s-.011.125-.011.189v.151c0 .076-.011.136-.011.208 0 .038 0 .083-.011.136l-.011.227c-.011.03-.011.064-.011.095l-.03.238c0 .03 0 .064-.011.095l-.038.302v.019l-.064.291-.064.314-.166.642-.106.333-.227.605-.125.302-.151.291-.03.076a9.98 9.98 0 0 1-2.952 3.534c-.083.053-.166.113-.249.178-.023.023-.053.03-.076.053l-.227.151.03.064h.011l.438-.064h.015l.813-.151c.076-.011.151-.03.227-.053l.151-.03.219-.038.189-.053c1.033-.252 2.044-.587 3.024-1.002-1.675 2.283-3.903 4.102-6.474 5.288a17.16 17.16 0 0 0 3.557-.616c4.203-1.24 7.737-4.067 9.853-7.873-.43 2.414-1.388 4.703-2.804 6.705 1.013-.669 1.939-1.436 2.786-2.313a16.48 16.48 0 0 0 4.384-8.863 16.76 16.76 0 0 1 .302 5.027c7.529-10.5.627-21.385-2.268-24.253-.038.076-.053.197-.06.325l-.106.699-.178.688-.249.669-.314.635-.378.593-.427.567c-.151.189-.325.355-.491.522l-.54.472a5.83 5.83 0 0 1-.582.408l-.616.355-.658.291c-.222.084-.448.157-.677.219l-.699.151-.711.083-.499.023c-.238 0-.48-.023-.71-.038-.239-.018-.476-.052-.711-.102-.237-.042-.471-.102-.699-.178h-.011l.688-.083.699-.151.68-.219c.227-.083.453-.189.658-.291a7.27 7.27 0 0 0 .627-.344l.582-.378c.187-.145.365-.301.533-.469.174-.16.338-.33.491-.51l.438-.567c.023-.03.038-.076.064-.106l.302-.499.314-.635.249-.669c.076-.219.125-.453.178-.68l.106-.699.038-.711-.019-.499-.083-.699-.151-.699-.227-.669c-.086-.219-.183-.433-.291-.643l-.355-.616-.378-.574-.48-.529-.272-.265-1.448-1.02-.208-.106a4.08 4.08 0 0 0-.99-.438z"/><path d="M47.966 27.171a3.29 3.29 0 0 1 .76-.253c.586-.095.918-.174 1.013-.238.159-.095.265-.227.318-.348.064-.227.095-.68.095-1.41v-1.38l.015-1.126-.049-1.682v-.994c0-.665-.049-1.221-.159-1.633-.03-.159-.174-.318-.397-.476-.302-.227-.756-.427-1.504-.635l-.015-.756.363-.076c.113-.015.541-.128 1.285-.317l1.126-.442.265-.144a4.04 4.04 0 0 1 .427-.317 6.54 6.54 0 0 0 1.141-1.157l.839-.064-.03 1.792c-.015.174-.015.317-.015.427l.015.729c.888-.756 1.682-1.285 2.411-1.587a6.88 6.88 0 0 1 2.683-.586c.931-.019 1.847.24 2.631.744.741.491 1.247 1.058 1.512 1.701s.348 1.965.348 3.916l-.064 5.201a1.36 1.36 0 0 0 .128.601 2.76 2.76 0 0 0 .888.238l.779.144a.87.87 0 0 1 .144.506l-.015.522-3.122-.227-.919.03h-.729l-2.109.159h-.541c-.015-.144-.015-.238-.015-.317l.03-.62c.144-.03.522-.076 1.111-.159.159-.015.333-.064.541-.113.208-.076.333-.174.363-.253.076-.189.129-.522.129-1.032l-.03-2.06.015-1.841c0-2.253-.128-3.647-.378-4.184-.378-.809-1.013-1.21-1.822-1.21a4.31 4.31 0 0 0-1.841.461 7.9 7.9 0 0 0-1.98 1.38l-.03.265.03.998-.015 1.058.064 2.551-.03.397c0 1.727.064 2.71.208 2.933s.665.461 1.587.729l.049.397c0 .128-.049.317-.113.586l-.839.015a8.87 8.87 0 0 1-1.047-.095l-1.746-.015-3.677.113a.83.83 0 0 1-.064-.333l.015-.506zm18.724-7.582c.283-.907.521-1.504.745-1.791a8.86 8.86 0 0 1 1.89-2.041 5.34 5.34 0 0 1 1.822-.968 6.35 6.35 0 0 1 1.712-.302 9.68 9.68 0 0 1 2.411.238 4.5 4.5 0 0 1 1.553.65c.522.361 1 .78 1.425 1.251.373.449.668.957.873 1.504.253.663.387 1.365.397 2.075l-1.776-.03-3.216-.144-1.27-.064-1.712.015h-1.379l-.03.378c0 .567.076 1.157.208 1.791a5.46 5.46 0 0 0 .62 1.633 4.46 4.46 0 0 0 1.032 1.206c.378.348.839.586 1.27.745l.918.302 1.648-.076c.454-.093.9-.226 1.33-.397a8.34 8.34 0 0 0 1.41-.854l.968.756c-.934 1.013-1.92 1.776-2.918 2.268s-2.124.68-3.402.68c-.839 0-1.523-.064-2.06-.227-.685-.179-1.334-.473-1.92-.869-.574-.408-1.083-.9-1.512-1.459-.454-.567-.73-1.19-.934-1.807-.253-.809-.397-1.459-.397-1.935-.008-.841.068-1.68.227-2.506zm9.26-.68a4.89 4.89 0 0 0-.348-1.712c-.219-.556-.567-.953-1.047-1.247a2.57 2.57 0 0 0-1.41-.461c-.756 0-1.349.318-1.935.934s-.888 1.512-.968 2.551l3.628.015.983-.049.665-.049.427.015zm6.047 4.619a3.96 3.96 0 0 1 .699-.095l.333.015.144.159 1.141 1.841c.363.427.729.779 1.134 1.047.238.159.62.348 1.142.522a3.29 3.29 0 0 0 1.126.189c.631.016 1.244-.211 1.712-.635.476-.442.756-.907.756-1.41 0-.333-.095-.62-.265-.854s-.54-.476-1.077-.756c-.265-.113-.934-.302-2.014-.567l-1.844-.522a4.31 4.31 0 0 1-1.33-.794 3.59 3.59 0 0 1-.888-1.156c-.265-.605-.378-1.126-.378-1.512 0-.809.129-1.459.348-1.98.241-.515.58-.979.998-1.364.302-.302.756-.567 1.379-.809a5.52 5.52 0 0 1 1.996-.363c.893-.012 1.785.058 2.665.208.671.113 1.323.322 1.935.62.076.238.159.809.283 1.682l.174 1.569a.61.61 0 0 1-.049.238c-.226.073-.462.116-.699.128-.094 0-.253-.015-.461-.03l-.378-.665c-.507-.952-1.032-1.618-1.569-1.996s-1.141-.586-1.89-.586-1.349.227-1.841.635c-.364.319-.563.786-.541 1.27 0 .348.189.699.567 1.058s1.013.65 1.935.839c1.398.302 2.426.62 3.076.919.952.442 1.633.983 2.014 1.587a3.84 3.84 0 0 1 .586 2.094 3.96 3.96 0 0 1-1.41 3.092c-.934.824-2.268 1.221-4.059 1.221l-1.822-.159c-.442-.049-.968-.159-1.569-.317l-1.172-.461a.83.83 0 0 1-.253-.227c-.03-.095-.113-.541-.208-1.33l-.264-2.332zm13.062-7.612c1.247-.522 2.154-1.047 2.71-1.512s1.157-1.349 1.791-2.495h.907a2.72 2.72 0 0 1 .144.873l-.015 1.3-.049.934.015.363.363.015 1.489-.064 1.191-.03a3.67 3.67 0 0 1 .11.76c0 .253-.049.541-.129.854-.263.039-.528.061-.794.064-.076 0-.253 0-.506-.03h-.824l-.287-.015-.756.03-.03 6.047.064 2.203a2.23 2.23 0 0 0 .382.839 1.89 1.89 0 0 0 .809.174c.284 0 .491-.03.635-.075s.378-.208.699-.461c.064-.064.174-.129.302-.227.237.171.451.373.635.601l.064.189c-.39.598-.938 1.075-1.584 1.38-.665.333-1.38.491-2.139.491-.998 0-1.791-.318-2.411-.934s-.918-1.602-.918-2.918l.064-2.789v-4.539l-.491-.015-1.156.015-.208-.049c-.059-.076-.092-.169-.095-.265l.03-.756z" fill-rule="nonzero"/></g></symbol></svg>