<?xml version="1.0" encoding="iso-8859-1"?>
<!-- Generator: Adobe Illustrator 19.0.0, SVG Export Plug-In . SVG Version: 6.00 Build 0)  -->
<svg version="1.1" id="Capa_1" xmlns="http://www.w3.org/2000/svg" xmlns:xlink="http://www.w3.org/1999/xlink" x="0px" y="0px"
	 viewBox="0 0 512 512" style="enable-background:new 0 0 512 512;" xml:space="preserve">
<g transform="translate(1 1)">
	<path style="fill:#FFE100;" d="M485.43,502.498H24.57c-9.422,0-17.069-7.647-17.069-17.069V75.776h494.997v409.653
		C502.498,494.852,494.852,502.498,485.43,502.498"/>
	<path style="fill:#FFA800;" d="M476.895,75.777V485.43c0,9.422-7.647,17.069-17.069,17.069h25.603
		c9.422,0,17.069-7.647,17.069-17.069V75.777H476.895z"/>
	<path style="fill:#FFE100;" d="M502.498,75.777H7.501V24.57c0-9.422,7.647-17.069,17.069-17.069H485.43
		c9.422,0,17.069,7.647,17.069,17.069L502.498,75.777L502.498,75.777z"/>
	<path style="fill:#FFA800;" d="M485.43,7.501h-25.603c9.422,0,17.069,7.647,17.069,17.069v51.207h25.603V24.57
		C502.498,15.148,494.852,7.501,485.43,7.501"/>
	<g>
		<path style="fill:#FFFFFF;" d="M33.104,75.777V485.43c0,9.422,7.647,17.069,17.069,17.069H24.57
			c-9.422,0-17.069-7.647-17.069-17.069V75.777H33.104z"/>
		<path style="fill:#FFFFFF;" d="M24.57,7.501h25.603c-9.422,0-17.069,7.647-17.069,17.069v51.207H7.501V24.57
			C7.501,15.148,15.148,7.501,24.57,7.501"/>
	</g>
	<polygon style="fill:#63D3FD;" points="212.578,306.207 266.891,445.011 291.026,384.655 351.381,360.52 	"/>
	<path d="M485.429,511H24.57C10.47,511-1,499.529-1,485.429V75.776c0-4.695,3.806-8.501,8.501-8.501h494.998
		c4.695,0,8.501,3.806,8.501,8.501v409.653C511,499.529,499.529,511,485.429,511z M16.002,84.278V485.43
		c0,4.725,3.843,8.568,8.568,8.568h460.858c4.725,0,8.568-3.844,8.568-8.568V84.278H16.002z"/>
	<path d="M502.499,84.278H7.501C2.806,84.278-1,80.472-1,75.777V24.57C-1,10.47,10.47-1,24.57-1h460.858
		c14.1,0,25.57,11.47,25.57,25.57v51.207C511,80.472,507.194,84.278,502.499,84.278z M16.002,67.276h477.996V24.57
		c0-4.725-3.844-8.568-8.568-8.568H24.57c-4.725,0-8.568,3.844-8.568,8.568V67.276z"/>
	<path d="M50.174,41.639c0,4.72-3.823,8.534-8.534,8.534s-8.535-3.814-8.535-8.534s3.823-8.534,8.534-8.534
		S50.174,36.919,50.174,41.639"/>
	<path d="M84.311,41.639c0,4.72-3.823,8.534-8.534,8.534c-4.711,0-8.534-3.814-8.534-8.534s3.823-8.534,8.534-8.534
		C80.488,33.104,84.311,36.919,84.311,41.639"/>
	<path d="M118.448,41.639c0,4.72-3.823,8.534-8.534,8.534s-8.534-3.814-8.534-8.534s3.823-8.534,8.534-8.534
		S118.448,36.919,118.448,41.639"/>
	<path d="M306.227,161.121c0,4.72-3.814,8.534-8.534,8.534c-4.711,0-8.534-3.814-8.534-8.534s3.823-8.534,8.534-8.534
		C302.412,152.587,306.227,156.401,306.227,161.121"/>
	<path d="M84.311,254.966c-18.805,0-34.104-15.299-34.104-34.104c0-4.695,3.806-8.501,8.501-8.501s8.501,3.807,8.501,8.501
		c0,9.43,7.672,17.102,17.102,17.102s17.102-7.672,17.102-17.102s-7.672-17.102-17.102-17.102
		c-18.805,0-34.104-15.299-34.104-34.104s15.299-34.104,34.104-34.104s34.104,15.299,34.104,34.104c0,4.695-3.806,8.501-8.501,8.501
		s-8.501-3.806-8.501-8.501c0-9.43-7.672-17.102-17.102-17.102s-17.102,7.672-17.102,17.102c0,9.43,7.672,17.102,17.102,17.102
		c18.805,0,34.104,15.299,34.104,34.104S103.116,254.966,84.311,254.966z"/>
	<path d="M178.194,254.962c-23.511,0-42.639-19.127-42.639-42.638s19.127-42.638,42.639-42.638c12.233,0,23.89,5.269,31.982,14.454
		c3.104,3.522,2.763,8.895-0.759,11.999c-3.522,3.104-8.895,2.763-11.999-0.759c-4.866-5.523-11.873-8.69-19.224-8.69
		c-14.136,0-25.636,11.5-25.636,25.636c0,14.136,11.5,25.636,25.636,25.636c7.349,0,14.359-3.164,19.231-8.682
		c3.107-3.52,8.48-3.854,12-0.745c3.519,3.107,3.852,8.48,0.745,12C202.07,249.702,190.417,254.962,178.194,254.962z"/>
	<path d="M237.948,254.966c-4.695,0-8.501-3.806-8.501-8.501v-68.276c0-4.695,3.806-8.501,8.501-8.501
		c4.695,0,8.501,3.806,8.501,8.501v68.276C246.449,251.16,242.642,254.966,237.948,254.966z"/>
	<path d="M237.948,212.295c-4.695,0-8.501-3.806-8.501-8.501c0-18.805,15.299-34.104,34.104-34.104c4.695,0,8.501,3.806,8.501,8.501
		c0,4.695-3.806,8.501-8.501,8.501c-9.43,0-17.102,7.672-17.102,17.102C246.449,208.488,242.642,212.295,237.948,212.295z"/>
	<path d="M297.693,254.966c-4.695,0-8.501-3.806-8.501-8.501v-51.207c0-4.695,3.806-8.501,8.501-8.501s8.501,3.806,8.501,8.501
		v51.207C306.194,251.16,302.388,254.966,297.693,254.966z"/>
	<path d="M331.83,254.966c-4.695,0-8.501-3.806-8.501-8.501v-85.344c0-4.695,3.806-8.501,8.501-8.501
		c4.695,0,8.501,3.807,8.501,8.501v85.344C340.331,251.16,336.525,254.966,331.83,254.966z"/>
	<path d="M357.438,203.759h-25.604c-4.695,0-8.501-3.807-8.501-8.501v-34.137c0-4.695,3.806-8.501,8.501-8.501h25.604
		c14.1,0,25.569,11.47,25.569,25.569C383.008,192.289,371.537,203.759,357.438,203.759z M340.335,186.757h17.103
		c4.725,0,8.567-3.844,8.567-8.568c0-4.725-3.843-8.567-8.567-8.567h-17.103V186.757z"/>
	<path d="M442.757,186.691h-34.138c-4.695,0-8.501-3.806-8.501-8.501c0-4.695,3.806-8.501,8.501-8.501h34.138
		c4.695,0,8.501,3.806,8.501,8.501C451.258,182.885,447.453,186.691,442.757,186.691z"/>
	<path d="M451.291,254.966c-18.805,0-34.104-15.299-34.104-34.104v-68.276c0-4.695,3.806-8.501,8.501-8.501s8.501,3.806,8.501,8.501
		v68.276c0,9.43,7.672,17.102,17.102,17.102c4.695,0,8.501,3.806,8.501,8.501C459.792,251.16,455.987,254.966,451.291,254.966z"/>
	<path d="M266.891,453.512c-0.011,0-0.021,0-0.031,0c-3.487-0.013-6.614-2.155-7.886-5.403L204.66,309.305
		c-1.23-3.146-0.483-6.721,1.905-9.109c2.388-2.388,5.965-3.132,9.108-1.905l138.805,54.313c3.247,1.271,5.391,4.397,5.403,7.886
		c0.013,3.487-2.105,6.63-5.345,7.925l-56.972,22.782l-22.781,56.972C273.493,451.396,270.366,453.512,266.891,453.512z
		 M227.574,321.204l39.402,100.697l16.155-40.401c0.864-2.16,2.576-3.872,4.737-4.737l40.401-16.156L227.574,321.204z"/>
	<path d="M357.41,459.539c-2.176,0-4.352-0.83-6.012-2.489l-66.381-66.381c-3.319-3.319-3.319-8.703,0-12.023
		c3.32-3.318,8.702-3.318,12.023,0l66.381,66.381c3.319,3.319,3.319,8.703,0,12.023C361.762,458.709,359.587,459.539,357.41,459.539
		z"/>
</g>
<g>
</g>
<g>
</g>
<g>
</g>
<g>
</g>
<g>
</g>
<g>
</g>
<g>
</g>
<g>
</g>
<g>
</g>
<g>
</g>
<g>
</g>
<g>
</g>
<g>
</g>
<g>
</g>
<g>
</g>
</svg>
